# xmcd CD database file
#
# Track frame offsets:
#	150
#	15799
#	31211
#	45958
#	61965
#	76359
#	90581
#	110722
#	124451
#	137436
#	152398
#	168053
#
# Disc length: 2653 seconds
#
# Revision: 1
# Processed by: cddbd v1.5.2PL0 Copyright (c) Steve Scherf et al.
# Submitted via: CDex 1.70beta2
#
DISCID=800a5b0c
DTITLE=Allen Toussaint - Allen Toussaint
DYEAR=1971
DGENRE=Blues
TTITLE0=From a Whisper To a Scream
TTITLE1=Chokin' Kind
TTITLE2=Sweet Touch Of Love
TTITLE3=What Is Success
TTITLE4=Working In the Coal Mine
TTITLE5=Everything I Do Gonna Be Funky
TTITLE6=Pickles
TTITLE7=Louie
TTITLE8=Either
TTITLE9=Cast Your Fate To the Wind
TTITLE10=Number Nine
TTITLE11=Poor Folks
EXTD=YEAR: 1971
EXTT0=
EXTT1=
EXTT2=
EXTT3=
EXTT4=
EXTT5=
EXTT6=
EXTT7=
EXTT8=
EXTT9=
EXTT10=
EXTT11=
PLAYORDER=
